<svg width="32" height="32" viewBox="0 0 32 32" fill="none" xmlns="http://www.w3.org/2000/svg">
<path d="M27.3732 21.6666C27.2532 21.6666 24.5598 21.1866 24.5598 13.3333C24.5598 7.78659 21.3332 4.33325 15.9998 4.33325C10.6665 4.33325 7.43984 7.78659 7.43984 13.3333C7.43984 21.3333 4.65317 21.6666 4.6665 21.6666C4.40129 21.6666 4.14693 21.7719 3.9594 21.9595C3.77186 22.147 3.6665 22.4014 3.6665 22.6666C3.6665 22.9318 3.77186 23.1862 3.9594 23.3737C4.14693 23.5612 4.40129 23.6666 4.6665 23.6666H11.1065C11.3291 24.8008 11.9388 25.8225 12.8314 26.557C13.724 27.2914 14.8439 27.693 15.9998 27.693C17.1557 27.693 18.2757 27.2914 19.1683 26.557C20.0609 25.8225 20.6706 24.8008 20.8932 23.6666H27.3465C27.6117 23.6666 27.8661 23.5612 28.0536 23.3737C28.2411 23.1862 28.3465 22.9318 28.3465 22.6666C28.3465 22.4014 28.2411 22.147 28.0536 21.9595C27.8661 21.7719 27.6117 21.6666 27.3465 21.6666H27.3732ZM15.9998 25.6666C15.3816 25.6654 14.7789 25.4724 14.275 25.1142C13.7711 24.7559 13.3908 24.2501 13.1865 23.6666H18.8132C18.6089 24.2501 18.2286 24.7559 17.7247 25.1142C17.2208 25.4724 16.6181 25.6654 15.9998 25.6666ZM7.67984 21.6666C8.63984 20.2133 9.43984 17.6666 9.43984 13.3333C9.43984 8.99992 11.8398 6.33325 15.9998 6.33325C20.1598 6.33325 22.5598 8.87992 22.5598 13.3333C22.5598 17.7866 23.3598 20.2133 24.3198 21.6666H7.67984Z" fill="#FAFAFA"/>
</svg>
