<svg width="32" height="32" viewBox="0 0 32 32" fill="none" xmlns="http://www.w3.org/2000/svg">
<path d="M15.2934 5.12003C15.4809 4.93276 15.7351 4.82758 16.0001 4.82758C16.2651 4.82758 16.5193 4.93276 16.7068 5.12003L28.2934 16.7067C28.385 16.8049 28.4954 16.8837 28.6181 16.9384C28.7407 16.9931 28.8731 17.0224 29.0074 17.0248C29.1417 17.0272 29.2751 17.0025 29.3996 16.9522C29.5241 16.9019 29.6372 16.827 29.7322 16.7321C29.8271 16.6371 29.902 16.524 29.9523 16.3995C30.0026 16.275 30.0273 16.1416 30.0249 16.0073C30.0225 15.8731 29.9931 15.7406 29.9385 15.618C29.8838 15.4953 29.805 15.3849 29.7068 15.2934L18.1214 3.7067C17.8429 3.42812 17.5121 3.20713 17.1482 3.05637C16.7842 2.9056 16.3941 2.828 16.0001 2.828C15.6061 2.828 15.216 2.9056 14.852 3.05637C14.4881 3.20713 14.1574 3.42812 13.8788 3.7067L2.29211 15.2934C2.11004 15.4821 2.00936 15.7347 2.01176 15.9969C2.01416 16.2591 2.11945 16.5099 2.30495 16.6952C2.49044 16.8805 2.74131 16.9856 3.0035 16.9877C3.2657 16.9899 3.51826 16.8889 3.70677 16.7067L15.2934 5.12003Z" fill="#FAFAFA"/>
<path d="M16 7.24266L26.8787 18.1213C26.9187 18.1613 26.9587 18.1987 27 18.236V26.5C27 27.88 25.88 29 24.5 29H20C19.7348 29 19.4804 28.8946 19.2929 28.7071C19.1054 28.5196 19 28.2652 19 28V22C19 21.7348 18.8946 21.4804 18.7071 21.2929C18.5196 21.1053 18.2652 21 18 21H14C13.7348 21 13.4804 21.1053 13.2929 21.2929C13.1054 21.4804 13 21.7348 13 22V28C13 28.2652 12.8946 28.5196 12.7071 28.7071C12.5196 28.8946 12.2652 29 12 29H7.5C6.83696 29 6.20107 28.7366 5.73223 28.2678C5.26339 27.7989 5 27.163 5 26.5V18.236C5.04148 18.1989 5.08194 18.1606 5.12133 18.1213L16 7.23999V7.24266Z" fill="#FAFAFA"/>
</svg>
