<svg width="54" height="54" viewBox="0 0 54 54" fill="none" xmlns="http://www.w3.org/2000/svg">
<path d="M40.3333 18.7334C39.3311 19.1682 38.2712 19.4556 37.1866 19.5867C38.3309 18.9031 39.1883 17.8277 39.6 16.56C38.5247 17.2001 37.3476 17.6511 36.12 17.8934C35.2994 17.0035 34.2066 16.4111 33.013 16.2092C31.8195 16.0072 30.5927 16.2072 29.525 16.7776C28.4573 17.3481 27.6092 18.2567 27.1136 19.3612C26.618 20.4656 26.503 21.7032 26.7866 22.88C24.6125 22.7701 22.4859 22.204 20.5448 21.2185C18.6038 20.2331 16.8918 18.8503 15.52 17.16C15.0388 18.0003 14.786 18.9518 14.7866 19.92C14.7849 20.8192 15.0056 21.7049 15.429 22.4981C15.8524 23.2914 16.4653 23.9676 17.2133 24.4667C16.3439 24.443 15.4931 24.2098 14.7333 23.7867V23.8534C14.7398 25.1132 15.1813 26.3322 15.983 27.304C16.7848 28.2758 17.8976 28.9409 19.1333 29.1867C18.6576 29.3315 18.1638 29.4078 17.6666 29.4134C17.3225 29.4093 16.9792 29.3781 16.64 29.32C16.9918 30.4038 17.6728 31.3509 18.5881 32.0296C19.5033 32.7083 20.6074 33.0848 21.7466 33.1067C19.8229 34.6204 17.4478 35.4465 15 35.4534C14.5543 35.4548 14.1089 35.4281 13.6666 35.3734C16.1659 36.987 19.0784 37.8437 22.0533 37.84C24.1062 37.8614 26.1428 37.4734 28.0441 36.6988C29.9454 35.9242 31.6733 34.7785 33.1269 33.3287C34.5805 31.8788 35.7306 30.1539 36.51 28.2546C37.2895 26.3553 37.6827 24.3197 37.6666 22.2667V21.56C38.7129 20.7798 39.6153 19.8233 40.3333 18.7334Z" fill="white"/>
<circle cx="27" cy="27" r="26" transform="rotate(180 27 27)" stroke="url(#paint0_linear_34_152)" stroke-width="2"/>
<defs>
<linearGradient id="paint0_linear_34_152" x1="4.64062" y1="9.59662e-07" x2="54" y2="54" gradientUnits="userSpaceOnUse">
<stop stop-color="#00B4E7"/>
<stop offset="1" stop-color="#00E5AF"/>
</linearGradient>
</defs>
</svg>
